<?xml version="1.0" standalone="no"?><!DOCTYPE svg PUBLIC "-//W3C//DTD SVG 1.1//EN" "http://www.w3.org/Graphics/SVG/1.1/DTD/svg11.dtd"><svg class="icon" width="200px" height="200.00px" viewBox="0 0 1024 1024" version="1.1" xmlns="http://www.w3.org/2000/svg"><path fill="#333333" d="M672 128a32 32 0 0 1 32 32V192h128a64 64 0 0 1 64 64v576a64 64 0 0 1-64 64H192a64 64 0 0 1-64-64V256a64 64 0 0 1 64-64h128v-32a32 32 0 0 1 64 0V192h256v-32a32 32 0 0 1 32-32zM832 512H192v307.2a12.8 12.8 0 0 0 9.408 12.352L204.8 832h614.4a12.8 12.8 0 0 0 12.352-9.408L832 819.2V512zM320 256H204.8a12.8 12.8 0 0 0-12.352 9.408L192 268.8V448h640V268.8a12.8 12.8 0 0 0-12.8-12.8H704v32a32 32 0 1 1-64 0V256H384v32a32 32 0 0 1-64 0V256z"  /></svg>