<?xml version="1.0" standalone="no"?><!DOCTYPE svg PUBLIC "-//W3C//DTD SVG 1.1//EN" "http://www.w3.org/Graphics/SVG/1.1/DTD/svg11.dtd"><svg class="icon" width="200px" height="200.00px" viewBox="0 0 1024 1024" version="1.1" xmlns="http://www.w3.org/2000/svg"><path fill="#333333" d="M512 192c194.816 0 341.12 100.224 438.848 300.608h0.064a44.8 44.8 0 0 1 0.064 38.784C854.208 731.776 707.904 832 512 832c-189.568 0-332.736-93.824-429.44-281.536l-9.6-19.072a44.8 44.8 0 0 1 0.128-38.784C170.88 292.224 317.184 192 512 192z m0 64C348.608 256 226.752 335.616 139.904 502.272L134.912 512l4.544 9.152c83.072 161.344 199.552 241.28 355.648 246.592L512 768c164.608 0 286.528-79.744 372.48-246.592l4.544-9.216-4.864-9.728c-83.84-160.896-200.128-240.64-354.816-246.144L512 256z m0 64a192 192 0 1 1 0 384 192 192 0 0 1 0-384z m0 64a128 128 0 1 0 0 256 128 128 0 0 0 0-256z"  /></svg>