<?xml version="1.0" standalone="no"?><!DOCTYPE svg PUBLIC "-//W3C//DTD SVG 1.1//EN" "http://www.w3.org/Graphics/SVG/1.1/DTD/svg11.dtd"><svg class="icon" width="200px" height="200.00px" viewBox="0 0 1024 1024" version="1.1" xmlns="http://www.w3.org/2000/svg"><path d="M512 160a224 224 0 0 1 148.288 391.872l93.12 45.184a96 96 0 0 1 53.312 73.92l15.808 120.704A64 64 0 0 1 759.072 864H264.928a64 64 0 0 1-63.456-72.32l15.808-120.704a96 96 0 0 1 53.312-73.92l93.12-45.184A224 224 0 0 1 512 160z" fill="#00CD96" /><path d="M496 576m24 0l0 0q24 0 24 24l0 144q0 24-24 24l0 0q-24 0-24-24l0-144q0-24 24-24Z" fill="#A4EBD3" /></svg>