<?xml version="1.0" standalone="no"?><!DOCTYPE svg PUBLIC "-//W3C//DTD SVG 1.1//EN" "http://www.w3.org/Graphics/SVG/1.1/DTD/svg11.dtd"><svg class="icon" width="200px" height="200.00px" viewBox="0 0 1024 1024" version="1.1" xmlns="http://www.w3.org/2000/svg"><path d="M530.4 140.928l306.4 215.232a64 64 0 0 1 27.2 52.352V832a32 32 0 0 1-32 32H192a32 32 0 0 1-32-32V408.512a64 64 0 0 1 27.2-52.352l306.4-215.232a32 32 0 0 1 36.8 0z" fill="#00CD96" /><path d="M512 672a96 96 0 0 1 96 96v128h-192v-128a96 96 0 0 1 96-96z" fill="#FFFFFF" opacity=".63" /></svg>