<?xml version="1.0" standalone="no"?><!DOCTYPE svg PUBLIC "-//W3C//DTD SVG 1.1//EN" "http://www.w3.org/Graphics/SVG/1.1/DTD/svg11.dtd"><svg class="icon" width="200px" height="200.00px" viewBox="0 0 1024 1024" version="1.1" xmlns="http://www.w3.org/2000/svg"><path d="M530.4 140.928l306.4 215.232a64 64 0 0 1 27.2 52.352V832a32 32 0 0 1-32 32H192a32 32 0 0 1-32-32V408.512a64 64 0 0 1 27.2-52.352l306.4-215.232a32 32 0 0 1 36.8 0zM512 186.656l-297.184 208.768a16 16 0 0 0-6.528 10.016l-0.288 3.072V816h608V408.512a16 16 0 0 0-4.48-11.072l-2.336-2.016L512 186.656z" fill="#B3B3B3" /><path d="M512 640a96 96 0 0 1 96 96v128h-192v-128a96 96 0 0 1 96-96z m0 48a48 48 0 0 0-47.776 43.392L464 736v80h96V736a48 48 0 0 0-43.392-47.776L512 688z" fill="#ABABAB" /></svg>