<?xml version="1.0" standalone="no"?><!DOCTYPE svg PUBLIC "-//W3C//DTD SVG 1.1//EN" "http://www.w3.org/Graphics/SVG/1.1/DTD/svg11.dtd"><svg class="icon" width="200px" height="200.00px" viewBox="0 0 1024 1024" version="1.1" xmlns="http://www.w3.org/2000/svg"><path fill="#333333" d="M512 128a384 384 0 1 1 0 768A384 384 0 0 1 512 128z m170.688 213.312a30.144 30.144 0 0 0-42.688 0l-128 128-128-128A30.144 30.144 0 0 0 341.312 384l128 128-128 128a30.144 30.144 0 0 0 42.688 42.688l128-128.064 128 128a30.144 30.144 0 0 0 42.688-42.624l-128-128 128-128a30.144 30.144 0 0 0 0-42.688z"  /></svg>