<?xml version="1.0" standalone="no"?><!DOCTYPE svg PUBLIC "-//W3C//DTD SVG 1.1//EN" "http://www.w3.org/Graphics/SVG/1.1/DTD/svg11.dtd"><svg t="1652344776180" class="icon" viewBox="0 0 1024 1024" version="1.1" xmlns="http://www.w3.org/2000/svg" p-id="1742" xmlns:xlink="http://www.w3.org/1999/xlink" width="200" height="200"><defs><style type="text/css"></style></defs><path d="M512.576948 1023.98912a493.365208 493.365208 0 0 0 199.227642-40.511114 520.948604 520.948604 0 0 0 162.044455-109.629601 519.220642 519.220642 0 0 0 109.629602-162.620443A497.397119 497.397119 0 0 0 1023.98976 511.360334a493.365208 493.365208 0 0 0-40.511113-199.227642 520.948604 520.948604 0 0 0-109.629602-162.044455A520.948604 520.948604 0 0 0 711.80459 40.522634 493.365208 493.365208 0 0 0 512.576948 0.01152a497.397119 497.397119 0 0 0-199.80363 40.511114 519.220642 519.220642 0 0 0-162.620442 109.629601A520.948604 520.948604 0 0 0 40.523274 312.196691 493.365208 493.365208 0 0 0 0.01216 511.424333c0 70.782452 13.503705 137.340996 40.511114 199.803629a519.220642 519.220642 0 0 0 109.629602 162.620443c46.014993 46.078992 100.221808 82.558194 162.620442 109.629601A497.397119 497.397119 0 0 0 512.640946 1023.98912z m61.630651-441.782336c0 18.239601-5.887871 33.663264-17.663613 46.206989a57.854734 57.854734 0 0 1-43.967038 18.879587 59.646695 59.646695 0 0 1-44.543026-18.879587 63.870603 63.870603 0 0 1-18.239601-46.206989V199.815149c0-18.3036 6.079867-32.959279 18.239601-43.967038a63.934601 63.934601 0 0 1 44.543026-16.575638 62.718628 62.718628 0 0 1 44.543025 17.151625 58.238726 58.238726 0 0 1 18.239601 44.479027l-1.151975 381.303659z m-61.630651 141.564903c22.079517 0 40.959104 7.807829 56.510763 23.35949 15.615658 15.615658 23.423488 34.495245 23.423488 56.510763 0 22.079517-7.807829 40.959104-23.423488 56.510764a76.990316 76.990316 0 0 1-56.510763 23.423488c-22.079517 0-41.087101-7.807829-57.086752-23.423488a76.094335 76.094335 0 0 1-23.999475-56.510764c0-22.015518 7.999825-40.895105 23.999475-56.510763 15.99965-15.55166 35.007234-23.359489 57.086752-23.35949z" fill="#FAAD14" p-id="1743"></path></svg>