<?xml version="1.0" standalone="no"?><!DOCTYPE svg PUBLIC "-//W3C//DTD SVG 1.1//EN" "http://www.w3.org/Graphics/SVG/1.1/DTD/svg11.dtd"><svg class="icon" width="200px" height="200.00px" viewBox="0 0 1024 1024" version="1.1" xmlns="http://www.w3.org/2000/svg"><path fill="#333333" d="M496 576m24 0l0 0q24 0 24 24l0 144q0 24-24 24l0 0q-24 0-24-24l0-144q0-24 24-24Z"  /><path fill="#333333" d="M512 160a224 224 0 0 1 148.288 391.872l93.12 45.184a96 96 0 0 1 53.312 73.92l15.808 120.704A64 64 0 0 1 759.072 864H264.928a64 64 0 0 1-63.456-72.32l15.808-120.704a96 96 0 0 1 53.312-73.92l93.12-45.184A224 224 0 0 1 512 160z m0 48a176 176 0 0 0-116.48 307.904 48 48 0 0 1-7.008 77.056l-3.84 2.112-93.12 45.184a48 48 0 0 0-25.824 32.192l-0.864 4.768-15.808 120.704a16 16 0 0 0 12.992 17.824l2.88 0.256h494.144l2.08-0.128a16 16 0 0 0 13.888-15.04l-0.096-2.88-15.808-120.736a48 48 0 0 0-22.432-34.656l-4.224-2.336-93.12-45.152a48 48 0 0 1-10.88-79.168A176 176 0 0 0 512 208z"  /></svg>