<?xml version="1.0" standalone="no"?><!DOCTYPE svg PUBLIC "-//W3C//DTD SVG 1.1//EN" "http://www.w3.org/Graphics/SVG/1.1/DTD/svg11.dtd"><svg class="icon" width="200px" height="200.00px" viewBox="0 0 1024 1024" version="1.1" xmlns="http://www.w3.org/2000/svg"><path fill="#333333" d="M740.368 370.672H308.288a76 76 0 0 0-59.584 28.8L85.712 605.248A156 156 0 0 0 52 702.08v169.168A44 44 0 0 0 96 915.264h837.44a44 44 0 0 0 44-44V698.08a156 156 0 0 0-29.008-90.592L802.24 402.56a76 76 0 0 0-61.872-31.872z m-432.08 24h432.08a52 52 0 0 1 42.336 21.808l146.192 204.928a132 132 0 0 1 24.544 76.656v173.2c0 11.04-8.96 20-20 20H96c-11.04 0-20-8.96-20-20V702.096a132 132 0 0 1 28.528-81.968L267.52 414.4a52 52 0 0 1 40.768-19.712z"  /><path fill="#333333" d="M407.52 647.536a44 44 0 0 1 27.632 9.76c34.528 27.872 67.072 41.552 97.696 41.552 29.792 0 58.64-12.944 86.88-39.408a44 44 0 0 1 26.736-11.776l3.36-0.128h239.28a12 12 0 0 1 1.632 23.904l-1.632 0.096H649.808c-5.088 0-9.968 1.936-13.68 5.408-32.416 30.4-66.96 45.904-103.28 45.904-36.672 0-74.288-15.808-112.768-46.88a20 20 0 0 0-10.304-4.304l-2.256-0.128H138.352a12 12 0 0 1-1.632-23.888l1.632-0.112H407.52zM241.568 151.52a12 12 0 0 1 15.632-1.168l1.344 1.168 93.648 93.648a12 12 0 0 1-15.632 18.128l-1.344-1.168-93.648-93.648a12 12 0 0 1 0-16.96zM768.192 151.52a12 12 0 0 0-15.632-1.168l-1.344 1.168-93.648 93.648a12 12 0 0 0 15.632 18.128l1.344-1.168 93.648-93.648a12 12 0 0 0 0-16.96zM501.552 120.448a12 12 0 0 0-12.064 10.176l-0.128 1.632-2 121.2a12 12 0 0 0 23.872 2.016l0.128-1.632 2-121.2a12 12 0 0 0-11.808-12.192z"  /></svg>