<?xml version="1.0" standalone="no"?><!DOCTYPE svg PUBLIC "-//W3C//DTD SVG 1.1//EN" "http://www.w3.org/Graphics/SVG/1.1/DTD/svg11.dtd"><svg class="icon" width="200px" height="200.00px" viewBox="0 0 1024 1024" version="1.1" xmlns="http://www.w3.org/2000/svg"><path fill="#333333" d="M512 64a448 448 0 1 1 0 896A448 448 0 0 1 512 64z m0 64a384 384 0 1 0 0 768A384 384 0 0 0 512 128z m0 582.4a44.8 44.8 0 1 1 0 89.6 44.8 44.8 0 0 1 0-89.6z m0-473.6a160 160 0 0 1 101.824 283.392c-11.904 9.856-27.712 17.664-47.744 24.256a31.808 31.808 0 0 0-21.568 24.448l-0.576 5.76V627.2a32 32 0 0 1-63.488 5.76L480 627.2v-52.608a95.872 95.872 0 0 1 58.176-88l8.256-3.072c12.864-4.16 21.824-8.64 26.688-12.672A96 96 0 1 0 416 396.8a32 32 0 0 1-64 0A160 160 0 0 1 512 236.8z"  /></svg>