<?xml version="1.0" standalone="no"?><!DOCTYPE svg PUBLIC "-//W3C//DTD SVG 1.1//EN" "http://www.w3.org/Graphics/SVG/1.1/DTD/svg11.dtd"><svg class="icon" width="200px" height="200.00px" viewBox="0 0 1024 1024" version="1.1" xmlns="http://www.w3.org/2000/svg"><path fill="#333333" d="M527.744 74.496A96 96 0 0 1 620.16 144.128l2.048 8.96 6.528 35.2 21.696 8.704c17.216 7.616 33.792 16.576 49.536 26.88l15.488 10.688 18.368 14.4 33.664-11.904a96 96 0 0 1 104.64 27.584l5.568 7.104 4.992 7.68 15.936 27.52a96 96 0 0 1-14.016 114.816l-6.656 6.272-27.2 23.168 0.768 4.224 2.56 18.752 1.536 18.88 0.576 18.944c0 12.608-0.704 25.28-2.112 37.76l-2.56 18.752-0.832 4.416 27.136 23.232a96 96 0 0 1 28.288 104.512l-3.392 8.384-4.224 8.128-15.936 27.52a96 96 0 0 1-106.368 45.056l-8.768-2.624-33.664-11.968-3.52 2.944c-19.584 16-40.64 29.76-62.976 41.088l-16.96 8-17.472 7.104-4.224 1.6-6.464 35.2a96 96 0 0 1-76.288 76.864l-8.96 1.28-9.152 0.448h-31.744a96 96 0 0 1-92.288-69.696l-2.112-8.96-6.656-35.712-21.248-8.576a342.784 342.784 0 0 1-49.216-26.816l-15.36-10.688-18.368-14.4-34.048 12.16a96 96 0 0 1-104.704-27.52l-5.568-7.168-4.992-7.68-15.936-27.52a96 96 0 0 1 14.08-114.816l6.656-6.272 27.904-23.808-0.768-4.544-2.496-18.56-1.536-18.56L168.832 512c0-12.672 0.64-25.28 1.984-37.568l3.2-22.72-27.84-23.744a96 96 0 0 1-28.288-104.576l3.328-8.32 4.224-8.192 15.936-27.52a96 96 0 0 1 106.432-44.992l8.832 2.624 34.112 12.096 18.304-14.336c15.104-11.136 31.04-20.992 47.744-29.44l16.896-8.064 17.28-7.104 4.096-1.6 6.592-35.456a96 96 0 0 1 76.288-76.864l8.96-1.28 9.152-0.448h31.68z m0 64h-31.68a32 32 0 0 0-29.952 20.736l-1.536 5.504-13.056 70.976-37.888 14.272a278.976 278.976 0 0 0-64.192 34.56l-14.528 11.136-31.36 25.92-68.352-24.32a32 32 0 0 0-35.2 9.536l-3.2 4.608-16 27.52a32 32 0 0 0 2.944 36.288l4.032 4.096 55.232 47.168-6.528 40a275.648 275.648 0 0 0-1.984 75.968l1.984 15.04 6.528 40-55.232 47.168a32 32 0 0 0-9.344 35.2l2.432 5.184 15.872 27.52a32 32 0 0 0 32.96 15.552l5.504-1.472 68.288-24.256 31.36 25.92c19.008 15.552 39.744 28.544 61.888 38.656l16.896 7.04 37.76 14.464 13.056 71.04a32 32 0 0 0 25.856 25.664l5.632 0.512h31.744a32 32 0 0 0 29.952-20.736l1.472-5.44 13.12-70.848 38.08-14.272a278.4 278.4 0 0 0 64.64-34.56l14.656-11.264 31.36-25.792 67.776 24a32 32 0 0 0 35.136-9.472l3.2-4.608 16-27.52a32 32 0 0 0-2.944-36.352l-3.968-4.032-54.4-46.592 6.528-40.128a283.008 283.008 0 0 0 2.112-76.992l-2.112-15.168-6.464-39.936 54.4-46.592a32 32 0 0 0 9.344-35.2l-2.432-5.12-15.936-27.52a32 32 0 0 0-32.832-15.616l-5.504 1.472-67.776 24-31.36-25.792a281.152 281.152 0 0 0-62.336-38.784l-17.024-7.04-38.08-14.272-13.056-70.848a32 32 0 0 0-31.488-26.176zM512 326.016c46.912 0 91.264 18.368 124.544 51.648A175.808 175.808 0 0 1 512 678.016a175.808 175.808 0 0 1-176-176c0-46.848 18.368-91.136 51.52-124.48A175.168 175.168 0 0 1 512 326.016z m0 64c-29.888 0-57.984 11.584-79.168 32.768-21.12 21.248-32.832 49.28-32.832 79.232 0 29.888 11.712 57.984 32.832 79.168 21.12 21.12 49.28 32.832 79.168 32.832 29.888 0 57.984-11.712 79.232-32.832 21.12-21.184 32.768-49.28 32.768-79.168 0-29.888-11.712-58.048-32.768-79.232A111.168 111.168 0 0 0 512 390.016z"  /></svg>