<?xml version="1.0" standalone="no"?><!DOCTYPE svg PUBLIC "-//W3C//DTD SVG 1.1//EN" "http://www.w3.org/Graphics/SVG/1.1/DTD/svg11.dtd"><svg class="icon" width="200px" height="200.00px" viewBox="0 0 1024 1024" version="1.1" xmlns="http://www.w3.org/2000/svg"><path fill="#333333" d="M640 170.688H213.312v682.624h597.376v-512H640V170.688z m-512-43.008c0-23.424 19.072-42.368 42.624-42.368h512L896 298.688v596.992a42.688 42.688 0 0 1-42.368 43.008H170.368A42.688 42.688 0 0 1 128 896.32V127.68zM577.28 616.32a170.752 170.752 0 0 1-207.36-267.712 170.688 170.688 0 0 1 267.648 207.36l94.272 94.272-60.288 60.416L577.216 616.32z m-26.432-86.72a85.312 85.312 0 1 0-118.528-122.752 85.312 85.312 0 0 0 118.528 122.752z"  /></svg>