<?xml version="1.0" standalone="no"?><!DOCTYPE svg PUBLIC "-//W3C//DTD SVG 1.1//EN" "http://www.w3.org/Graphics/SVG/1.1/DTD/svg11.dtd"><svg class="icon" width="200px" height="200.00px" viewBox="0 0 1024 1024" version="1.1" xmlns="http://www.w3.org/2000/svg"><path fill="#333333" d="M424.704 94.272a426.24 426.24 0 0 1 174.528-0.064 170.368 170.368 0 0 0 83.456 122.112c44.864 25.984 99.2 30.08 147.456 11.136a426.24 426.24 0 0 1 87.168 151.232 170.368 170.368 0 0 0-64 133.312c0 53.952 25.024 102.016 64.128 133.312a428.48 428.48 0 0 1-87.296 151.168 170.368 170.368 0 0 0-147.456 11.136 170.368 170.368 0 0 0-83.392 121.984 426.24 426.24 0 0 1-174.528 0.192 170.368 170.368 0 0 0-83.456-122.24 170.368 170.368 0 0 0-147.456-11.072 426.24 426.24 0 0 1-87.168-151.296c40.448-32.384 64-81.408 64-133.248 0-51.84-23.552-100.928-64.128-133.248A428.48 428.48 0 0 1 193.92 227.52a170.368 170.368 0 0 0 147.456-11.136 170.368 170.368 0 0 0 83.392-122.048zM512 640a128 128 0 1 0 0-256 128 128 0 0 0 0 256z" /></svg>