<?xml version="1.0" standalone="no"?><!DOCTYPE svg PUBLIC "-//W3C//DTD SVG 1.1//EN" "http://www.w3.org/Graphics/SVG/1.1/DTD/svg11.dtd"><svg class="icon" width="200px" height="200.00px" viewBox="0 0 1024 1024" version="1.1" xmlns="http://www.w3.org/2000/svg"><path d="M0 0h1024v1024H0z" fill="#1489F0" /><path d="M746.672 805.328H277.328A29.328 29.328 0 0 1 248 776v-528c0-16.208 13.12-29.328 29.328-29.328h469.344c16.192 0 29.328 13.12 29.328 29.328v528c0 16.208-13.12 29.328-29.328 29.328zM365.328 336v117.328h117.344V336h-117.344z m176 29.328V424h117.344v-58.672h-117.344z" fill="#FFFFFF" /><path d="M365.328 512v58.672h293.344V512z" fill="#1489F0" /><path d="M365.328 629.328V688h293.344v-58.672z" fill="#1489F0" opacity=".5" /></svg>