<?xml version="1.0" standalone="no"?><!DOCTYPE svg PUBLIC "-//W3C//DTD SVG 1.1//EN" "http://www.w3.org/Graphics/SVG/1.1/DTD/svg11.dtd"><svg class="icon" width="200px" height="200.00px" viewBox="0 0 1024 1024" version="1.1" xmlns="http://www.w3.org/2000/svg"><path fill="#333333" d="M853.312 512c23.616 0 42.688 19.072 42.688 42.688v384H128v-384C128 531.072 147.072 512 170.688 512h682.624zM362.688 597.312H277.312v85.376h85.376V597.312zM512 192a256 256 0 0 1 229.056 141.44l-76.416 38.208a170.688 170.688 0 0 0-305.344 0l-76.352-38.144A256 256 0 0 1 512 192zM512 21.312a426.688 426.688 0 0 1 381.696 235.84l-76.352 38.208a341.312 341.312 0 0 0-610.688 0l-76.416-38.208A426.688 426.688 0 0 1 512 21.312z" /></svg>