<?xml version="1.0" standalone="no"?><!DOCTYPE svg PUBLIC "-//W3C//DTD SVG 1.1//EN" "http://www.w3.org/Graphics/SVG/1.1/DTD/svg11.dtd"><svg class="icon" width="200px" height="200.00px" viewBox="0 0 1024 1024" version="1.1" xmlns="http://www.w3.org/2000/svg"><path fill="#333333" d="M512 128a384 384 0 1 0 0 768A384 384 0 0 0 512 128z m3.2 691.2a304 304 0 1 1 0.128-608.128A304 304 0 0 1 515.2 819.2z"  /><path fill="#333333" d="M544.128 535.488V352a8 8 0 0 0-8-8h-54.336a8 8 0 0 0-8 8v211.392c0 2.56 1.216 4.992 3.328 6.528l118.592 84.928c3.584 2.56 8.576 1.792 11.2-1.728l31.616-41.984a8 8 0 0 0-1.792-11.2L544.128 535.488z"  /></svg>