<?xml version="1.0" standalone="no"?><!DOCTYPE svg PUBLIC "-//W3C//DTD SVG 1.1//EN" "http://www.w3.org/Graphics/SVG/1.1/DTD/svg11.dtd"><svg class="icon" width="200px" height="200.00px" viewBox="0 0 1024 1024" version="1.1" xmlns="http://www.w3.org/2000/svg"><path fill="#333333" d="M505.856 67.328L170.24 250.368a6.4 6.4 0 0 0 0 11.264l335.616 183.04a12.8 12.8 0 0 0 12.288 0l335.552-183.04a6.4 6.4 0 0 0 0-11.264l-335.552-183.04a12.8 12.8 0 0 0-12.288 0zM148.032 336.64l320.192 180.928a12.8 12.8 0 0 1 6.464 11.136v362.432a12.8 12.8 0 0 1-18.88 11.264l-321.088-173.44A12.8 12.8 0 0 1 128 717.568l0.96-369.92a12.8 12.8 0 0 1 19.072-11.136zM873.472 337.984L557.44 517.568a12.8 12.8 0 0 0-6.4 11.136v362.368a12.8 12.8 0 0 0 18.88 11.264l316.992-172.096a12.8 12.8 0 0 0 6.72-11.264l-0.96-369.92a12.8 12.8 0 0 0-19.136-11.072z" /></svg>