<?xml version="1.0" standalone="no"?><!DOCTYPE svg PUBLIC "-//W3C//DTD SVG 1.1//EN" "http://www.w3.org/Graphics/SVG/1.1/DTD/svg11.dtd"><svg class="icon" width="200px" height="200.00px" viewBox="0 0 1024 1024" version="1.1" xmlns="http://www.w3.org/2000/svg"><path d="M512 512m-512 0a512 512 0 1 0 1024 0 512 512 0 1 0-1024 0Z" fill="#FFFFFF" /><path d="M706.408626 745.00007H326.495722A23.747896 23.747896 0 0 1 302.747826 721.252174V293.843478a23.747896 23.747896 0 0 1 23.747896-23.747895h379.912904A23.747896 23.747896 0 0 1 730.156522 293.843478v427.408696a23.747896 23.747896 0 0 1-23.747896 23.747896zM397.730504 365.078261v94.982678h94.973774V365.078261H397.730504z m0 142.469565v47.486887h237.443339V507.547826H397.730504z m142.469566-118.721669V436.313043h94.973773v-47.486886H540.20007z" fill="#1489F0" /><path d="M397.730504 602.530504V650.017391h237.443339v-47.486887z" fill="#FFFFFF" opacity=".5" /></svg>