<?xml version="1.0" standalone="no"?><!DOCTYPE svg PUBLIC "-//W3C//DTD SVG 1.1//EN" "http://www.w3.org/Graphics/SVG/1.1/DTD/svg11.dtd"><svg class="icon" width="200px" height="200.00px" viewBox="0 0 1024 1024" version="1.1" xmlns="http://www.w3.org/2000/svg"><path fill="#333333" d="M512 64a448 448 0 1 1 0 896A448 448 0 0 1 512 64z m0 64a384 384 0 1 0 0 768A384 384 0 0 0 512 128z m0 115.2a32 32 0 0 1 32 32v320a32 32 0 0 1-64 0v-320a32 32 0 0 1 32-32z m0 435.2A44.8 44.8 0 1 1 512 768a44.8 44.8 0 0 1 0-89.6z"  /></svg>